<?xml version="1.0" encoding="UTF-8"?>
<svg xmlns="http://www.w3.org/2000/svg" xmlns:xlink="http://www.w3.org/1999/xlink" width="425.197pt" height="425.197pt" viewBox="0 0 425.197 425.197" version="1.1">
<g id="surface1">
<path style=" stroke:none;fill-rule:nonzero;fill:rgb(0%,59.999084%,50.999451%);fill-opacity:1;" d="M 80.636719 160.625 C 81.878906 157.460938 80.902344 154.316406 77.402344 152.941406 C 73.175781 151.273438 70.636719 154.292969 69.8125 156.390625 C 68.699219 159.214844 69.480469 162.703125 72.980469 164.082031 C 76.277344 165.378906 79.273438 164.070312 80.636719 160.625 M 66.261719 154.902344 C 68.675781 148.78125 74.671875 146.5625 79.289062 148.382812 C 83.410156 150.003906 87.039062 155.390625 84.382812 162.132812 C 81.921875 168.382812 75.902344 170.503906 71.289062 168.683594 C 67.191406 167.070312 63.554688 161.773438 66.261719 154.902344 "/>
<path style=" stroke:none;fill-rule:nonzero;fill:rgb(0%,59.999084%,50.999451%);fill-opacity:1;" d="M 72.839844 188.8125 L 74.617188 180.695312 L 70.695312 179.839844 L 68.917969 187.957031 L 65.40625 187.1875 L 67.179688 179.070312 L 59.554688 177.402344 L 60.578125 172.71875 L 79.15625 176.78125 L 76.351562 189.582031 Z M 72.839844 188.8125 "/>
<path style=" stroke:none;fill-rule:nonzero;fill:rgb(0%,59.999084%,50.999451%);fill-opacity:1;" d="M 55.558594 213.660156 L 55.605469 208.867188 L 74.613281 209.054688 L 74.566406 213.847656 Z M 55.558594 213.660156 "/>
<path style=" stroke:none;fill-rule:nonzero;fill:rgb(0%,59.999084%,50.999451%);fill-opacity:1;" d="M 57.929688 241.546875 L 57.445312 237.621094 L 67.832031 225.753906 L 56.160156 227.195312 L 55.582031 222.519531 L 74.445312 220.191406 L 74.972656 224.480469 L 65.101562 235.945312 L 76.21875 234.574219 L 76.792969 239.21875 Z M 57.929688 241.546875 "/>
<path style=" stroke:none;fill-rule:nonzero;fill:rgb(0%,59.999084%,50.999451%);fill-opacity:1;" d="M 78.402344 258.492188 L 76.097656 250.515625 L 72.242188 251.628906 L 74.546875 259.605469 L 71.09375 260.601562 L 68.789062 252.625 L 61.292969 254.789062 L 59.964844 250.1875 L 78.222656 244.910156 L 81.859375 257.492188 Z M 78.402344 258.492188 "/>
<path style=" stroke:none;fill-rule:nonzero;fill:rgb(0%,59.999084%,50.999451%);fill-opacity:1;" d="M 84.261719 273 C 82.8125 269.925781 79.851562 268.488281 76.449219 270.09375 C 72.339844 272.035156 72.800781 275.945312 73.761719 277.988281 C 75.058594 280.734375 78.136719 282.550781 81.539062 280.945312 C 84.738281 279.433594 85.84375 276.355469 84.261719 273 M 70.246094 279.554688 C 67.441406 273.605469 69.929688 267.714844 74.417969 265.597656 C 78.425781 263.703125 84.835938 264.746094 87.929688 271.300781 C 90.796875 277.375 88.21875 283.214844 83.734375 285.332031 C 79.75 287.214844 73.402344 286.234375 70.246094 279.554688 "/>
<path style=" stroke:none;fill-rule:nonzero;fill:rgb(0%,59.999084%,50.999451%);fill-opacity:1;" d="M 94.804688 291.027344 L 91.230469 293.503906 L 92.355469 295.132812 C 93.101562 296.109375 93.277344 296.359375 93.789062 296.613281 C 94.484375 296.980469 95.25 296.859375 95.890625 296.414062 C 97.675781 295.175781 96.472656 293.433594 96.167969 293 Z M 99.074219 291.121094 C 100.058594 292.542969 101.042969 293.960938 101.136719 295.761719 C 101.160156 296.96875 100.714844 299.074219 98.859375 300.359375 C 96.25 302.167969 93.933594 300.789062 93.152344 300.34375 C 93.382812 301.847656 92.339844 303.722656 91.777344 304.625 C 91.183594 305.675781 90.179688 307.355469 89.570312 308.390625 L 88.8125 309.691406 L 85.84375 305.410156 C 86.292969 304.589844 88.449219 301.09375 88.847656 300.34375 C 90.085938 297.925781 89.546875 297.144531 88.785156 296.046875 L 88.386719 295.472656 L 82.019531 299.886719 L 79.289062 295.945312 L 94.914062 285.117188 Z M 99.074219 291.121094 "/>
<path style=" stroke:none;fill-rule:nonzero;fill:rgb(0%,59.999084%,50.999451%);fill-opacity:1;" d="M 107.402344 329.671875 L 104.054688 326.238281 L 112.375 318.125 L 104.421875 318.753906 L 103.9375 318.253906 L 104.765625 310.320312 L 96.445312 318.4375 L 93.097656 315.003906 L 106.707031 301.734375 L 109.644531 304.746094 L 108.679688 314.09375 L 118.113281 313.425781 L 121.011719 316.398438 Z M 107.402344 329.671875 "/>
<path style=" stroke:none;fill-rule:nonzero;fill:rgb(0%,59.999084%,50.999451%);fill-opacity:1;" d="M 129.488281 328.515625 L 122.941406 332.878906 L 127.707031 336.285156 Z M 130.140625 346.730469 L 125.988281 343.761719 L 126.910156 339.792969 L 119.992188 334.847656 L 116.648438 337.082031 L 112.566406 334.164062 L 129.859375 323.160156 L 134.328125 326.351562 Z M 130.140625 346.730469 "/>
<path style=" stroke:none;fill-rule:nonzero;fill:rgb(0%,59.999084%,50.999451%);fill-opacity:1;" d="M 155.566406 342.601562 L 149.484375 339.4375 L 142.359375 353.136719 L 138.082031 350.914062 L 145.207031 337.214844 L 139.097656 334.039062 L 140.742188 330.871094 L 157.214844 339.4375 Z M 155.566406 342.601562 "/>
<path style=" stroke:none;fill-rule:nonzero;fill:rgb(0%,59.999084%,50.999451%);fill-opacity:1;" d="M 159.953125 360.632812 L 155.460938 358.960938 L 162.097656 341.148438 L 166.589844 342.820312 Z M 159.953125 360.632812 "/>
<path style=" stroke:none;fill-rule:nonzero;fill:rgb(0%,59.999084%,50.999451%);fill-opacity:1;" d="M 185.636719 365.9375 C 182.582031 366.742188 180.289062 366.628906 177.925781 366.078125 C 170.734375 364.386719 168.253906 358.847656 169.367188 354.097656 C 170.464844 349.429688 175.277344 345.40625 182.796875 347.167969 C 186.160156 347.960938 188.246094 349.566406 189.066406 350.363281 L 188.0625 354.625 C 187.4375 353.871094 185.414062 351.878906 182.210938 351.128906 C 178.355469 350.222656 174.984375 351.777344 174.1875 355.175781 C 173.332031 358.808594 175.949219 361.574219 179.421875 362.390625 C 181.160156 362.796875 182.902344 362.691406 184.636719 362.265625 L 186.636719 361.675781 Z M 185.636719 365.9375 "/>
<path style=" stroke:none;fill-rule:nonzero;fill:rgb(0%,59.999084%,50.999451%);fill-opacity:1;" d="M 207.355469 355.824219 C 206.101562 355.078125 203.835938 353.691406 201.417969 353.496094 C 198.640625 353.269531 198.445312 354.625 198.429688 354.816406 C 198.335938 355.957031 200.144531 356.777344 202.789062 357.972656 C 205.109375 359.027344 207.824219 360.703125 207.527344 364.371094 C 207.167969 368.757812 202.484375 369.609375 199.652344 369.378906 C 196.457031 369.117188 193.546875 367.371094 193.101562 367 L 193.4375 362.914062 C 194.992188 364.078125 197.050781 365.585938 199.828125 365.8125 C 200.441406 365.863281 202.667969 366.015625 202.804688 364.320312 C 202.90625 363.070312 201.851562 362.59375 199.421875 361.527344 C 196.777344 360.363281 193.441406 358.746094 193.765625 354.746094 C 194 351.855469 196.621094 349.554688 201.371094 349.941406 C 202.875 350.058594 204.75 350.382812 207.671875 351.933594 Z M 207.355469 355.824219 "/>
<path style=" stroke:none;fill-rule:nonzero;fill:rgb(0%,59.999084%,50.999451%);fill-opacity:1;" d="M 235.976562 353.332031 L 234.445312 361.050781 L 240.214844 360.082031 Z M 249.328125 365.734375 L 244.300781 366.574219 L 242.136719 363.121094 L 233.753906 364.527344 L 232.976562 368.476562 L 228.027344 369.300781 L 232.445312 349.289062 L 237.859375 348.382812 Z M 249.328125 365.734375 "/>
<path style=" stroke:none;fill-rule:nonzero;fill:rgb(0%,59.999084%,50.999451%);fill-opacity:1;" d="M 274.015625 357.507812 L 270.289062 358.828125 L 256.457031 351.253906 L 260.382812 362.339844 L 255.945312 363.910156 L 249.597656 346 L 253.667969 344.554688 L 266.996094 351.71875 L 263.253906 341.160156 L 267.667969 339.59375 Z M 274.015625 357.507812 "/>
<path style=" stroke:none;fill-rule:nonzero;fill:rgb(0%,59.999084%,50.999451%);fill-opacity:1;" d="M 278.648438 338.027344 L 284.449219 348.265625 L 286.125 347.316406 C 288.425781 346.007812 288.972656 345.445312 289.488281 344.769531 C 290.75 343.089844 290.929688 340.875 289.597656 338.519531 C 288.582031 336.726562 286.8125 335.132812 284.183594 335.46875 C 282.867188 335.636719 281.847656 336.214844 280.734375 336.84375 Z M 279.429688 333.417969 C 280.5 332.8125 282.027344 331.949219 284.289062 331.53125 C 285.859375 331.25 290.980469 331.007812 293.878906 336.125 C 294.816406 337.773438 296.355469 341.449219 293.855469 345.464844 C 292.757812 347.207031 291.378906 348.503906 288.492188 350.140625 L 282.066406 353.78125 L 272.6875 337.242188 Z M 279.429688 333.417969 "/>
<path style=" stroke:none;fill-rule:nonzero;fill:rgb(0%,59.999084%,50.999451%);fill-opacity:1;" d="M 316.390625 311.4375 C 315 311.882812 312.460938 312.65625 310.710938 314.335938 C 308.699219 316.265625 309.582031 317.308594 309.71875 317.449219 C 310.507812 318.277344 312.320312 317.464844 314.964844 316.277344 C 317.296875 315.242188 320.351562 314.320312 322.898438 316.976562 C 325.945312 320.152344 323.476562 324.222656 321.421875 326.191406 C 319.109375 328.410156 315.875 329.425781 315.300781 329.511719 L 312.464844 326.554688 C 314.367188 326.160156 316.863281 325.625 318.875 323.691406 C 319.316406 323.269531 320.90625 321.707031 319.730469 320.476562 C 318.863281 319.570312 317.804688 320.042969 315.398438 321.15625 C 312.769531 322.363281 309.347656 323.789062 306.570312 320.894531 C 304.566406 318.800781 304.578125 315.3125 308.019531 312.011719 C 309.105469 310.972656 310.585938 309.78125 313.6875 308.621094 Z M 316.390625 311.4375 "/>
<path style=" stroke:none;fill-rule:nonzero;fill:rgb(0%,59.999084%,50.999451%);fill-opacity:1;" d="M 330.226562 292.035156 L 326.023438 297.453125 L 338.21875 306.921875 L 335.261719 310.726562 L 323.066406 301.261719 L 318.84375 306.699219 L 316.027344 304.511719 L 327.410156 289.847656 Z M 330.226562 292.035156 "/>
<path style=" stroke:none;fill-rule:nonzero;fill:rgb(0%,59.999084%,50.999451%);fill-opacity:1;" d="M 336.359375 283.53125 L 341.367188 289.601562 L 344.269531 284.519531 Z M 354.414062 281.035156 L 351.882812 285.464844 L 347.839844 284.953125 L 343.625 292.335938 L 346.1875 295.4375 L 343.699219 299.792969 L 330.996094 283.710938 L 333.71875 278.941406 Z M 354.414062 281.035156 "/>
<path style=" stroke:none;fill-rule:nonzero;fill:rgb(0%,59.999084%,50.999451%);fill-opacity:1;" d="M 347.699219 256.167969 L 345.175781 262.542969 L 359.527344 268.226562 L 357.753906 272.710938 L 343.398438 267.023438 L 340.863281 273.425781 L 337.546875 272.109375 L 344.382812 254.855469 Z M 347.699219 256.167969 "/>
<path style=" stroke:none;fill-rule:nonzero;fill:rgb(0%,59.999084%,50.999451%);fill-opacity:1;" d="M 365.171875 249.96875 L 363.96875 254.609375 L 345.566406 249.832031 L 346.773438 245.195312 Z M 365.171875 249.96875 "/>
<path style=" stroke:none;fill-rule:nonzero;fill:rgb(0%,59.999084%,50.999451%);fill-opacity:1;" d="M 355.191406 226.761719 C 354.371094 227.96875 352.847656 230.144531 352.503906 232.546875 C 352.105469 235.304688 353.449219 235.582031 353.640625 235.609375 C 354.773438 235.773438 355.699219 234.019531 357.054688 231.453125 C 358.25 229.203125 360.089844 226.59375 363.734375 227.117188 C 368.09375 227.742188 368.652344 232.46875 368.25 235.285156 C 367.796875 238.457031 365.875 241.25 365.472656 241.675781 L 361.417969 241.09375 C 362.671875 239.609375 364.304688 237.648438 364.703125 234.890625 C 364.789062 234.28125 365.078125 232.070312 363.394531 231.824219 C 362.152344 231.648438 361.613281 232.671875 360.398438 235.03125 C 359.074219 237.601562 357.257812 240.832031 353.285156 240.261719 C 350.414062 239.851562 348.273438 237.09375 348.953125 232.375 C 349.164062 230.882812 349.597656 229.03125 351.328125 226.207031 Z M 355.191406 226.761719 "/>
<path style=" stroke:none;fill-rule:nonzero;fill:rgb(0%,59.999084%,50.999451%);fill-opacity:1;" d="M 354.171875 202.953125 L 354.1875 209.808594 L 369.628906 209.78125 L 369.640625 214.605469 L 354.195312 214.632812 L 354.210938 221.515625 L 350.640625 221.523438 L 350.605469 202.960938 Z M 354.171875 202.953125 "/>
<path style=" stroke:none;fill-rule:nonzero;fill:rgb(0%,59.999084%,50.999451%);fill-opacity:1;" d="M 368.148438 190.738281 L 368.738281 195.496094 L 349.871094 197.832031 L 349.285156 193.074219 Z M 368.148438 190.738281 "/>
<path style=" stroke:none;fill-rule:nonzero;fill:rgb(0%,59.999084%,50.999451%);fill-opacity:1;" d="M 360.980469 165.511719 C 363.101562 167.851562 364.066406 169.933594 364.667969 172.285156 C 366.492188 179.445312 362.730469 184.203125 358.003906 185.410156 C 353.355469 186.59375 347.5625 184.1875 345.652344 176.707031 C 344.796875 173.355469 345.257812 170.765625 345.585938 169.671875 L 349.828125 168.59375 C 349.453125 169.492188 348.621094 172.207031 349.433594 175.394531 C 350.414062 179.230469 353.351562 181.503906 356.726562 180.640625 C 360.347656 179.71875 361.585938 176.121094 360.707031 172.664062 C 360.265625 170.933594 359.367188 169.4375 358.1875 168.097656 L 356.742188 166.597656 Z M 360.980469 165.511719 "/>
<path style=" stroke:none;fill-rule:nonzero;fill:rgb(0%,59.999084%,50.999451%);fill-opacity:1;" d="M 341.964844 150.9375 C 341.886719 152.394531 341.703125 155.042969 342.652344 157.277344 C 343.738281 159.84375 345.027344 159.390625 345.207031 159.3125 C 346.261719 158.867188 346.148438 156.882812 345.980469 153.988281 C 345.84375 151.445312 346.066406 148.261719 349.457031 146.824219 C 353.511719 145.105469 356.433594 148.867188 357.542969 151.480469 C 358.792969 154.4375 358.59375 157.820312 358.472656 158.386719 L 354.695312 159.984375 C 355.003906 158.070312 355.390625 155.542969 354.300781 152.976562 C 354.0625 152.414062 353.167969 150.371094 351.601562 151.035156 C 350.445312 151.523438 350.511719 152.675781 350.691406 155.320312 C 350.886719 158.207031 351.003906 161.914062 347.308594 163.480469 C 344.636719 164.609375 341.378906 163.355469 339.519531 158.964844 C 338.933594 157.578125 338.347656 155.769531 338.371094 152.460938 Z M 341.964844 150.9375 "/>
<path style=" stroke:none;fill-rule:nonzero;fill:rgb(0%,59.999084%,50.999451%);fill-opacity:1;" d="M 106.625 116.476562 C 105.144531 118.109375 102.601562 118.25 100.953125 116.75 C 99.320312 115.269531 99.179688 112.730469 100.679688 111.078125 C 102.160156 109.449219 104.699219 109.265625 106.371094 110.785156 C 108.042969 112.304688 108.105469 114.847656 106.625 116.476562 "/>
<path style=" stroke:none;fill-rule:nonzero;fill:rgb(0%,59.999084%,50.999451%);fill-opacity:1;" d="M 142.378906 76.488281 L 135.179688 80.621094 L 137.175781 84.101562 L 144.378906 79.96875 L 146.167969 83.085938 L 138.96875 87.21875 L 142.851562 93.984375 L 138.695312 96.371094 L 129.230469 79.890625 L 140.589844 73.371094 Z M 142.378906 76.488281 "/>
<path style=" stroke:none;fill-rule:nonzero;fill:rgb(0%,59.999084%,50.999451%);fill-opacity:1;" d="M 159.882812 69.988281 L 159.800781 77.855469 L 165.296875 75.839844 Z M 175.296875 79.710938 L 170.511719 81.46875 L 167.746094 78.472656 L 159.765625 81.402344 L 159.730469 85.425781 L 155.019531 87.152344 L 155.664062 66.667969 L 160.820312 64.773438 Z M 175.296875 79.710938 "/>
<path style=" stroke:none;fill-rule:nonzero;fill:rgb(0%,59.999084%,50.999451%);fill-opacity:1;" d="M 198.613281 73.792969 C 196.101562 75.707031 193.945312 76.484375 191.550781 76.878906 C 184.261719 78.082031 179.847656 73.921875 179.054688 69.109375 C 178.273438 64.378906 181.171875 58.816406 188.789062 57.558594 C 192.199219 56.996094 194.742188 57.679688 195.800781 58.097656 L 196.511719 62.414062 C 195.644531 61.964844 193.011719 60.902344 189.765625 61.4375 C 185.863281 62.082031 183.347656 64.8125 183.914062 68.25 C 184.519531 71.9375 187.996094 73.480469 191.515625 72.902344 C 193.277344 72.609375 194.84375 71.84375 196.28125 70.789062 L 197.902344 69.476562 Z M 198.613281 73.792969 "/>
<path style=" stroke:none;fill-rule:nonzero;fill:rgb(0%,59.999084%,50.999451%);fill-opacity:1;" d="M 227.464844 66.800781 C 227.410156 68.304688 227.296875 70.667969 225.613281 72.589844 C 223.578125 74.859375 220.433594 75.472656 217.511719 75.367188 C 216.035156 75.316406 212.078125 75.117188 209.636719 71.714844 C 208.917969 70.683594 208.269531 69.320312 208.378906 66.257812 L 208.753906 55.785156 L 213.542969 55.957031 L 213.207031 65.371094 C 213.179688 66.152344 213.140625 67.265625 213.4375 68.335938 C 213.976562 70.472656 215.863281 71.488281 217.730469 71.554688 C 220.484375 71.652344 221.832031 69.886719 222.257812 68.929688 C 222.621094 68.101562 222.648438 67.378906 222.707031 65.710938 L 223.042969 56.296875 L 227.832031 56.464844 Z M 227.464844 66.800781 "/>
<path style=" stroke:none;fill-rule:nonzero;fill:rgb(0%,59.999084%,50.999451%);fill-opacity:1;" d="M 250.878906 80.179688 L 236.742188 76.988281 L 240.925781 58.445312 L 245.605469 59.503906 L 242.195312 74.589844 L 251.660156 76.726562 Z M 250.878906 80.179688 "/>
<path style=" stroke:none;fill-rule:nonzero;fill:rgb(0%,59.999084%,50.999451%);fill-opacity:1;" d="M 277.046875 73.46875 L 270.664062 70.96875 L 265.03125 85.347656 L 260.539062 83.589844 L 266.171875 69.210938 L 259.761719 66.699219 L 261.0625 63.375 L 278.351562 70.148438 Z M 277.046875 73.46875 "/>
<path style=" stroke:none;fill-rule:nonzero;fill:rgb(0%,59.999084%,50.999451%);fill-opacity:1;" d="M 292.257812 89.652344 L 287.539062 97.191406 L 283.496094 94.660156 L 288.21875 87.121094 L 287.234375 74.566406 L 292.074219 77.597656 L 292.453125 84.875 L 299.164062 82.035156 L 303.984375 85.054688 Z M 292.257812 89.652344 "/>
<path style=" stroke:none;fill-rule:nonzero;fill:rgb(0%,59.999084%,50.999451%);fill-opacity:1;" d="M 320.820312 119.015625 C 319.382812 117.351562 319.542969 114.8125 321.230469 113.355469 C 322.894531 111.914062 325.433594 112.078125 326.890625 113.765625 C 328.332031 115.429688 328.207031 117.972656 326.5 119.445312 C 324.792969 120.925781 322.261719 120.683594 320.820312 119.015625 "/>
<path style=" stroke:none;fill-rule:nonzero;fill:rgb(0%,59.999084%,50.999451%);fill-opacity:1;" d="M 224.039062 163.570312 L 295.941406 163.570312 L 295.941406 186.449219 L 259.902344 186.449219 L 259.902344 200.957031 L 294.058594 200.957031 L 294.058594 223.769531 L 259.902344 223.769531 L 259.902344 240.023438 L 296.703125 240.023438 L 296.703125 263.613281 L 224.039062 263.613281 Z M 224.039062 163.570312 "/>
<path style=" stroke:none;fill-rule:nonzero;fill:rgb(0%,59.999084%,50.999451%);fill-opacity:1;" d="M 175.273438 189.4375 C 175.273438 180.875 180.609375 173.976562 188.410156 171.449219 L 177.546875 198.367188 C 176.109375 195.972656 175.273438 193.074219 175.273438 189.4375 M 182.890625 203.847656 L 196.347656 170.417969 C 202.234375 170.644531 207.15625 172.535156 216.167969 178.011719 L 216.167969 169.515625 C 208.863281 165.269531 201.703125 163.21875 194.40625 163.21875 C 179.539062 163.21875 167.425781 174.9375 167.425781 189.730469 C 167.425781 197.746094 170.078125 203.070312 174.082031 206.957031 L 157.507812 248.046875 L 123.128906 163.53125 L 115.597656 163.53125 L 156.371094 264.449219 L 158.5 264.449219 L 179.90625 211.269531 C 193.148438 218.964844 212.171875 220.121094 212.171875 238.652344 C 212.171875 249.929688 203.492188 258.570312 192.339844 258.570312 C 185.046875 258.570312 179.125 255.9375 168.660156 247.878906 L 168.660156 256.960938 C 176.921875 262.816406 185.046875 265.75 192.753906 265.75 C 208.035156 265.75 220.023438 253.738281 220.023438 238.359375 C 220.023438 212.53125 195.667969 212.691406 182.890625 203.847656 "/>
<path style=" stroke:none;fill-rule:nonzero;fill:rgb(0%,59.999084%,50.999451%);fill-opacity:1;" d="M 211.742188 157.316406 L 177.035156 157.316406 L 177.035156 150.242188 L 211.742188 150.242188 Z M 211.742188 157.316406 "/>
</g>
</svg>
